<svg width="82" height="28" viewBox="0 0 82 28" fill="none" xmlns="http://www.w3.org/2000/svg">
<g clip-path="url(#clip0)">
<path d="M31.0909 22.8467V12.7078H28.1787V10.8562H35.9799V12.7078H33.0833V22.8467H31.0909Z" fill="#275FE1"/>
<path d="M32.9776 12.5908V22.7259H31.1966V12.5908H28.2844V10.9692H35.8742V12.5908H32.9776Z" fill="black"/>
<path d="M35.1345 22.8467V14.9843H36.9703V15.8068C37.0998 15.548 37.2763 15.3154 37.4909 15.1207C37.8094 14.8608 38.2105 14.7226 38.6221 14.7309C38.8598 14.7314 39.0965 14.7615 39.3267 14.8205C39.5605 14.8868 39.7873 14.9756 40.0039 15.0856L40.0939 15.1324L39.4167 16.8397L39.311 16.7579C39.1846 16.6602 39.0414 16.5862 38.8883 16.5396C38.7163 16.4922 38.5383 16.4699 38.3599 16.4733C38.1389 16.4607 37.9192 16.5146 37.7294 16.6279C37.5395 16.7412 37.3882 16.9087 37.2952 17.1087C37.0206 17.8362 36.9045 18.6135 36.9547 19.3891V22.8467H35.1345Z" fill="#275FE1"/>
<path d="M36.8647 16.3291C36.9942 15.8957 37.2406 15.5061 37.5771 15.2025C37.8778 14.9606 38.2553 14.8335 38.6418 14.8439C38.8703 14.8429 39.0979 14.8717 39.3189 14.9297C39.5468 14.9916 39.7673 15.0779 39.9765 15.1869L39.3933 16.6682C39.2565 16.5641 39.103 16.4837 38.9392 16.4304C38.7506 16.3798 38.5549 16.3601 38.3599 16.372C38.1165 16.3573 37.8742 16.416 37.6647 16.5404C37.4552 16.6649 37.2883 16.8494 37.1857 17.0697C36.9035 17.8158 36.7834 18.6129 36.8334 19.4086V22.7531H35.2285V15.1012H36.8529L36.8647 16.3291Z" fill="black"/>
<path d="M42.9824 23.1625C42.5117 23.181 42.0434 23.0865 41.6169 22.8871C41.1905 22.6877 40.8184 22.3891 40.5321 22.0165C39.8946 21.1121 39.5804 20.0208 39.6396 18.9175C39.5932 17.8375 39.9131 16.7734 40.5478 15.8965C40.8241 15.5269 41.1847 15.2281 41.5999 15.0247C42.0151 14.8214 42.4729 14.7193 42.9355 14.727C43.4763 14.7081 44.0114 14.8433 44.4777 15.1168C44.7804 15.3077 45.0338 15.5667 45.2175 15.8731V14.9765H47.0533V22.8468H45.2175V22.0671C44.9859 22.3722 44.6942 22.6269 44.3603 22.8156C43.9396 23.0499 43.4644 23.1696 42.9824 23.1625ZM43.4248 16.5163C43.162 16.505 42.9003 16.5569 42.6619 16.6674C42.4235 16.778 42.2152 16.9441 42.0548 17.1516C41.6943 17.6855 41.5184 18.3219 41.5537 18.9643C41.5135 19.6007 41.6825 20.2329 42.0352 20.7652C42.3299 21.1155 42.7521 21.3353 43.2092 21.3762C43.6663 21.4171 44.121 21.2759 44.4738 20.9835C44.572 20.902 44.66 20.8091 44.736 20.7067C45.1104 20.1811 45.2966 19.5455 45.2645 18.9019C45.2993 18.2807 45.1273 17.6655 44.7752 17.1516C44.6191 16.9442 44.4145 16.7778 44.1791 16.6671C43.9438 16.5563 43.6848 16.5045 43.4248 16.5163Z" fill="#275FE1"/>
<path d="M46.9478 22.7337H45.3234V21.7436C45.0728 22.1499 44.7243 22.4876 44.3096 22.7259C43.9033 22.9472 43.4455 23.0575 42.9826 23.0455C42.5273 23.0651 42.074 22.9751 41.661 22.7831C41.2481 22.591 40.8877 22.3026 40.6106 21.9424C39.9919 21.0582 39.6875 19.9936 39.7455 18.9175C39.7035 17.8682 40.0149 16.835 40.6301 15.9822C40.8975 15.6267 41.2461 15.3398 41.6471 15.1452C42.048 14.9507 42.4897 14.8541 42.9356 14.8634C43.4588 14.848 43.9753 14.9833 44.4231 15.2532C44.839 15.5169 45.1556 15.9103 45.3234 16.372V15.1168H46.9478V22.7337ZM45.3821 18.9019C45.4209 18.2489 45.2405 17.6016 44.8693 17.062C44.703 16.8466 44.487 16.6743 44.2397 16.5596C43.9924 16.445 43.721 16.3913 43.4484 16.4032C43.1703 16.3937 42.8939 16.4502 42.642 16.5682C42.3902 16.6861 42.1702 16.8621 42.0001 17.0815C41.6265 17.6359 41.4476 18.2979 41.4913 18.9642C41.4487 19.6268 41.6277 20.2847 42.0001 20.8353C42.175 21.0471 42.3957 21.2168 42.6458 21.3315C42.8959 21.4463 43.1688 21.5031 43.4441 21.4979C43.7194 21.4926 43.9899 21.4254 44.2354 21.3012C44.4808 21.177 44.6949 20.9991 44.8615 20.7807C45.2514 20.234 45.4433 19.5715 45.4056 18.9019H45.3821Z" fill="black"/>
<path d="M53.6882 22.8468V18.82C53.6882 17.8494 53.5786 17.1984 53.3672 16.871C53.2316 16.7098 53.0581 16.5845 52.8621 16.5063C52.6661 16.4281 52.4537 16.3994 52.2438 16.4227C51.908 16.4193 51.5759 16.4927 51.2731 16.6371C51.0038 16.7731 50.7766 16.9792 50.6155 17.2335C50.4954 17.436 50.4156 17.6597 50.3806 17.8923C50.3292 18.34 50.3069 18.7905 50.3141 19.241V22.8273H48.4744V15.0038H50.2162V16.0095C50.4781 15.6425 50.8157 15.3355 51.2065 15.1091C51.7187 14.8537 52.2857 14.7266 52.8583 14.7387C53.3377 14.7264 53.8138 14.821 54.2518 15.0155C54.643 15.1954 54.9705 15.4889 55.1912 15.8575C55.331 16.0986 55.4265 16.3626 55.4731 16.6371C55.5466 17.1299 55.5754 17.6283 55.5592 18.1262V22.8468H53.6882Z" fill="#275FE1"/>
<path d="M48.584 22.7337V15.1168H50.1027V16.372C50.3791 15.8903 50.7755 15.4875 51.2535 15.2026C51.7503 14.9524 52.3018 14.8292 52.8584 14.8439C53.3231 14.8308 53.7848 14.9228 54.2088 15.1129C54.5702 15.2819 54.8738 15.553 55.0817 15.8925C55.214 16.1178 55.3054 16.3646 55.3518 16.6215C55.422 17.1067 55.4495 17.5971 55.4339 18.0872V22.7337H53.7939V18.8356C53.7939 17.8338 53.6804 17.1672 53.4533 16.8398C53.3096 16.6628 53.1235 16.5248 52.9121 16.4382C52.7008 16.3517 52.4709 16.3196 52.2438 16.3447C51.8926 16.3378 51.5448 16.4153 51.23 16.5708C50.9406 16.7119 50.6975 16.9324 50.5294 17.2062C50.3961 17.4194 50.3106 17.6587 50.2789 17.9078C50.2242 18.3618 50.2006 18.8189 50.2084 19.2761V22.7493L48.584 22.7337Z" fill="black"/>
<path d="M58.9763 23.1625C58.3524 23.1864 57.7343 23.0366 57.1913 22.7298C56.6927 22.4086 56.3026 21.9454 56.0719 21.4005L56.0288 21.3031L57.5945 20.3948L57.6337 20.5313C57.7033 20.8512 57.8833 21.1368 58.1425 21.3382C58.4316 21.5332 58.7761 21.6302 59.125 21.6149C59.4066 21.6306 59.6845 21.5448 59.9078 21.3732C59.999 21.2927 60.0707 21.1927 60.1175 21.0806C60.1643 20.9685 60.1849 20.8473 60.1779 20.7262C60.1779 20.3675 59.8296 20.044 59.1407 19.7711C58.8901 19.6737 58.6944 19.5918 58.5574 19.5255C57.9484 19.291 57.3951 18.9325 56.933 18.4731C56.6112 18.0979 56.4398 17.6176 56.4516 17.1243C56.4427 16.794 56.5085 16.466 56.644 16.1644C56.7795 15.8628 56.9812 15.5954 57.2344 15.3819C57.8117 14.9232 58.5359 14.6879 59.2737 14.7192C59.7814 14.7075 60.2837 14.8241 60.7338 15.0583C61.136 15.2771 61.454 15.6226 61.638 16.0407L61.6771 16.1264L60.3384 17.1165L60.2914 16.9801C60.2203 16.7699 60.083 16.5881 59.9 16.4616C59.697 16.3317 59.4602 16.2639 59.2189 16.2667C58.9741 16.2552 58.7331 16.3297 58.5379 16.4772C58.4608 16.5448 58.3996 16.6283 58.3583 16.7219C58.3171 16.8155 58.2969 16.9169 58.2991 17.0191C58.2991 17.3582 58.7101 17.6934 59.4734 17.9975C59.7395 18.0988 59.947 18.1846 60.0918 18.2509C60.6464 18.4526 61.1424 18.7873 61.5362 19.2254C61.8436 19.6218 62.0027 20.1125 61.9863 20.6131C62.0019 20.9666 61.9367 21.319 61.7957 21.6438C61.6546 21.9686 61.4414 22.2573 61.1722 22.4881C60.5465 22.9705 59.7661 23.2101 58.9763 23.1625Z" fill="#275FE1"/>
<path d="M56.1658 21.3499L57.5162 20.5702C57.59 20.9163 57.7858 21.2247 58.0681 21.4395C58.3728 21.6501 58.7389 21.7542 59.1093 21.7358C59.4186 21.7544 59.7239 21.6586 59.9665 21.4668C60.0717 21.3769 60.1543 21.2639 60.208 21.1367C60.2617 21.0095 60.2849 20.8716 60.2758 20.734C60.2758 20.3208 59.9078 19.9543 59.168 19.6737C58.9214 19.5762 58.7257 19.4944 58.5926 19.432C57.9975 19.2014 57.4565 18.851 57.0034 18.4029C56.7023 18.0559 56.5406 17.6102 56.5494 17.1516C56.5397 16.8375 56.6016 16.5252 56.7304 16.2383C56.8592 15.9514 57.0516 15.6972 57.2931 15.4949C57.8494 15.0596 58.5432 14.8358 59.2502 14.8634C59.7454 14.8518 60.2351 14.9686 60.6711 15.2026C61.0522 15.4087 61.3537 15.735 61.5283 16.1303L60.354 16.984C60.2854 16.7566 60.1489 16.5553 59.9626 16.4071C59.7435 16.2662 59.4875 16.193 59.2267 16.1966C58.9589 16.185 58.6956 16.2678 58.483 16.4305C58.3905 16.5071 58.3169 16.6039 58.268 16.7134C58.2191 16.8229 58.1963 16.9422 58.2012 17.062C58.2012 17.4596 58.62 17.8221 59.4577 18.1495C59.7238 18.2509 59.9274 18.3327 60.0722 18.3951C60.6104 18.5919 61.0935 18.914 61.4814 19.3345C61.7719 19.7099 61.9214 20.1746 61.9041 20.6482C61.9198 20.9856 61.8574 21.3222 61.7217 21.6318C61.5859 21.9413 61.3805 22.2157 61.1212 22.4335C60.5144 22.8976 59.7595 23.1274 58.9958 23.0806C58.3914 23.1037 57.7925 22.9593 57.2657 22.6635C56.769 22.3523 56.3839 21.8924 56.1658 21.3499Z" fill="black"/>
<path d="M68.4176 23.1625C67.5825 23.1779 66.7526 23.0296 65.9751 22.7259C65.2565 22.4339 64.6121 21.9865 64.0884 21.4161C63.5516 20.8231 63.1379 20.1303 62.8711 19.3774C62.5862 18.5738 62.4431 17.7271 62.4483 16.8748C62.4401 16.0217 62.5859 15.174 62.8789 14.3723C63.1643 13.6189 63.5997 12.9308 64.1589 12.3492C64.6983 11.7846 65.3503 11.3384 66.0729 11.0394C66.8192 10.7397 67.6169 10.5875 68.4215 10.5911C69.2338 10.5788 70.0379 10.7549 70.7701 11.1057C71.5041 11.4833 72.1405 12.025 72.6293 12.6883L72.6998 12.7819L71.2319 13.9513L71.1654 13.8733C70.8481 13.4504 70.4338 13.1091 69.9572 12.8779C69.4806 12.6467 68.9554 12.5322 68.4254 12.5441C67.8948 12.5292 67.3672 12.6281 66.8783 12.8338C66.3894 13.0396 65.9506 13.3476 65.5915 13.7369C64.8404 14.5993 64.4484 15.7148 64.4955 16.8554C64.4472 18.0074 64.8404 19.1347 65.5954 20.0089C65.9525 20.4048 66.3923 20.7181 66.8839 20.9269C67.3755 21.1356 67.9069 21.2348 68.4411 21.2173C69.2884 21.2687 70.1248 21.0063 70.7896 20.4806C71.07 20.2319 71.2911 19.924 71.4367 19.5794C71.5823 19.2348 71.6487 18.8621 71.6312 18.4887V18.4341H68.9969V16.5942H73.5492V17.0386C73.5492 17.4284 73.5727 17.6779 73.5727 17.8182C73.5727 19.4983 73.1147 20.8236 72.2144 21.7592C71.3141 22.6947 70.0655 23.1625 68.4176 23.1625Z" fill="#275FE1"/>
<path d="M69.1064 16.7072H73.4473V17.0425C73.4473 17.4323 73.4708 17.6857 73.4708 17.8221C73.4708 19.4827 73.0285 20.769 72.1439 21.6812C71.2592 22.5934 70.0145 23.0507 68.4097 23.0533C67.5895 23.0642 66.7753 22.9131 66.0141 22.6089C65.308 22.3236 64.6753 21.884 64.1627 21.3226C63.6418 20.7402 63.2427 20.0604 62.9884 19.3229C62.7099 18.5326 62.5696 17.7007 62.5735 16.8632C62.558 16.0331 62.6905 15.2069 62.9649 14.423C63.2437 13.6842 63.6698 13.0092 64.2175 12.4388C64.7465 11.8821 65.3882 11.4436 66.1002 11.1525C66.8324 10.8569 67.6157 10.7072 68.4057 10.712C69.2132 10.6885 70.0139 10.865 70.736 11.2256C71.4581 11.5861 72.079 12.1195 72.5431 12.778L71.2397 13.8149C70.9042 13.3833 70.4763 13.0317 69.9871 12.7858C69.4983 12.5544 68.9625 12.4384 68.4214 12.4466C67.8763 12.4293 67.3339 12.5302 66.8317 12.7422C66.3296 12.9542 65.8796 13.2723 65.5131 13.6745C64.7388 14.5515 64.3349 15.6926 64.3858 16.8593C64.335 18.0412 64.7381 19.1981 65.5131 20.0947C65.8801 20.5013 66.3321 20.8229 66.8372 21.0371C67.3423 21.2512 67.8884 21.3527 68.4371 21.3343C69.3078 21.3824 70.1652 21.1043 70.8404 20.5547C71.1339 20.2962 71.3652 19.9752 71.517 19.6155C71.6688 19.2558 71.7372 18.8666 71.7172 18.477V18.321H69.0829L69.1064 16.7072Z" fill="black"/>
<path d="M77.9722 23.1625C77.4479 23.1622 76.9294 23.0534 76.4496 22.8428C75.9587 22.6284 75.5176 22.3152 75.154 21.9229C74.7739 21.5274 74.4759 21.0611 74.2772 20.5508C73.8741 19.507 73.8741 18.3514 74.2772 17.3076C74.4771 16.8024 74.775 16.3414 75.154 15.951C75.4976 15.5821 75.9109 15.2842 76.3703 15.0745C76.8297 14.8648 77.326 14.7474 77.831 14.7289C78.336 14.7104 78.8397 14.7913 79.3132 14.9669C79.7868 15.1425 80.221 15.4094 80.5909 15.7522C80.6717 15.8249 80.7488 15.9017 80.8218 15.9822C81.2009 16.3755 81.4988 16.839 81.6986 17.3465C81.9018 17.8535 82.0042 18.395 82 18.9409C82.0037 19.4964 81.9027 20.0478 81.7025 20.5664C81.2989 21.5846 80.5105 22.4047 79.5066 22.8506C79.0229 23.061 78.5 23.1672 77.9722 23.1625ZM77.9722 16.5357C77.6894 16.5342 77.4099 16.5961 77.1544 16.7169C76.899 16.8377 76.6741 17.0143 76.4965 17.2335C76.1005 17.7196 75.8844 18.3266 75.8844 18.9525C75.8844 19.5785 76.1005 20.1855 76.4965 20.6716C76.6729 20.8921 76.8976 21.0696 77.1533 21.1905C77.409 21.3114 77.6891 21.3726 77.9722 21.3694C78.258 21.3713 78.5404 21.3084 78.7981 21.1855C79.0558 21.0625 79.282 20.8828 79.4596 20.6599C79.8556 20.1738 80.0718 19.5668 80.0718 18.9409C80.0718 18.3149 79.8556 17.7079 79.4596 17.2218C79.2811 17.0042 79.0559 16.8293 78.8005 16.7099C78.5451 16.5905 78.2661 16.5296 77.984 16.5318L77.9722 16.5357Z" fill="#275FE1"/>
<path d="M74.0776 18.933C74.0808 18.4 74.1802 17.8718 74.3712 17.3738C74.5671 16.8825 74.8569 16.4337 75.2245 16.0523C75.5624 15.6926 75.9682 15.4028 76.4186 15.1993C76.8691 14.9958 77.3554 14.8827 77.8497 14.8664C78.3441 14.8501 78.8368 14.9309 79.2998 15.1043C79.7627 15.2777 80.1869 15.5403 80.5479 15.8769C80.6183 15.9392 80.685 16.0056 80.7475 16.0757C81.4912 16.8526 81.9025 17.887 81.8944 18.9603C81.899 19.5013 81.8007 20.0383 81.6048 20.5429C81.4135 21.0235 81.1273 21.4609 80.7632 21.8293C80.3942 22.2159 79.9509 22.5248 79.4598 22.7376C78.9901 22.942 78.483 23.0476 77.9704 23.0476C77.4578 23.0476 76.9507 22.942 76.481 22.7376C76.0028 22.5273 75.5727 22.2222 75.2167 21.841C74.8525 21.454 74.5656 21.0016 74.3712 20.5079C74.1764 20.0055 74.0769 19.4715 74.0776 18.933ZM80.18 18.933C80.1956 18.2811 79.9683 17.6465 79.542 17.1516C79.376 16.9468 79.1711 16.7765 78.939 16.6506C78.7069 16.5247 78.4522 16.4455 78.1894 16.4176C77.9266 16.3898 77.6608 16.4137 77.4073 16.4882C77.1538 16.5626 76.9175 16.686 76.7119 16.8515C76.6019 16.9415 76.501 17.042 76.4105 17.1516C75.9981 17.6605 75.7732 18.2947 75.7732 18.9486C75.7732 19.6026 75.9981 20.2368 76.4105 20.7456C76.5776 20.9489 76.7832 21.1174 77.0156 21.2415C77.2481 21.3656 77.5028 21.4429 77.7652 21.469C78.0276 21.495 78.2927 21.4694 78.5451 21.3934C78.7976 21.3174 79.0326 21.1927 79.2366 21.0263C79.342 20.9448 79.4366 20.8505 79.5185 20.7456C79.9583 20.251 80.1946 19.6092 80.18 18.9486V18.933Z" fill="black"/>
<path d="M30.7413 2.41537L21.8403 0.0765152C21.5417 -0.00274051 21.2303 -0.0225338 20.924 0.0182698C20.6177 0.0590734 20.3225 0.159672 20.0554 0.314299L17.3154 1.87354V9.27991L9.74126 13.3729L3.24749 11.6928L11.4361 7.09308V9.49821L10.8607 9.83344C10.8113 9.86276 10.7752 9.90993 10.7599 9.96513C10.7446 10.0203 10.7513 10.0793 10.7785 10.1297C10.79 10.1566 10.8091 10.1796 10.8333 10.196L12.4538 11.303L13.8121 8.50029C13.8826 8.35996 13.6634 8.19624 13.5224 8.2742L13.178 8.4769V5.74824C13.178 5.49495 13.077 5.25203 12.8971 5.07293C12.7173 4.89383 12.4733 4.79321 12.219 4.79321C12.0593 4.79642 11.9026 4.83645 11.761 4.91015L0.487931 11.0263C0.324731 11.1148 0.191557 11.2495 0.105255 11.4134C0.0189529 11.5773 -0.0166 11.763 0.00309359 11.947C0.0227872 12.131 0.0968426 12.3051 0.215892 12.4472C0.334941 12.5893 0.493636 12.693 0.671901 12.7453L10.0661 15.474L12.583 14.0746V27.1527C12.583 27.3763 12.672 27.5909 12.8304 27.7494C12.9889 27.9079 13.2039 27.9975 13.4285 27.9986C13.6131 28.0029 13.7934 27.9422 13.9374 27.827L21.2179 22.3697V12.4997L21.7776 12.1567C21.8132 12.1363 21.8392 12.1028 21.8502 12.0634C21.8612 12.024 21.8562 11.982 21.8363 11.9462C21.8232 11.9235 21.8043 11.9047 21.7815 11.8916L20.0358 10.7222L18.2157 14.0317C18.1491 14.1525 18.3213 14.3085 18.4427 14.2383L19.1786 13.7783L19.2451 21.0483C19.2474 21.1745 19.2199 21.2995 19.1648 21.4133C19.1098 21.527 19.0287 21.6263 18.928 21.7031L15.0138 24.7281C14.9514 24.7775 14.8719 24.8004 14.7927 24.7916C14.7135 24.7828 14.641 24.7432 14.591 24.6813C14.5479 24.6269 14.5245 24.5596 14.5245 24.4903L14.5636 12.9948L30.9214 3.89665C31.0751 3.82921 31.2029 3.71434 31.286 3.569C31.3691 3.42366 31.4031 3.25556 31.3829 3.08952C31.3627 2.92348 31.2894 2.7683 31.1739 2.64691C31.0584 2.52551 30.9067 2.44434 30.7413 2.41537ZM19.1981 8.26251L19.1551 2.87535L20.5016 2.17369C20.9079 1.96003 21.3794 1.90445 21.8246 2.01777L27.9113 3.53023L19.1981 8.26251Z" fill="#275FE1"/>
</g>
<defs>
<clipPath id="clip0">
<rect width="82" height="28" fill="white"/>
</clipPath>
</defs>
</svg>
