<svg id="图层_1" data-name="图层 1" xmlns="http://www.w3.org/2000/svg" viewBox="0 0 209.49 71.83"><defs><style>.cls-1{fill:#275fe1;}.cls-2{fill:#fff;}</style></defs><title>蓝白资源 1</title><g id="图层_2" data-name="图层 2"><g id="图层_1-2" data-name="图层 1-2"><polygon class="cls-1" points="79.43 58.61 79.43 32.6 71.99 32.6 71.99 27.85 91.92 27.85 91.92 32.6 84.52 32.6 84.52 58.61 79.43 58.61"/><path class="cls-2" d="M84.25,32.3v26H79.7v-26H72.26V28.14H91.65V32.3Z" transform="translate(0 0)"/><path class="cls-1" d="M89.76,58.61V38.44h4.69v2.11a5.46,5.46,0,0,1,1.33-1.76,4.4,4.4,0,0,1,2.89-1,6.84,6.84,0,0,1,1.8.23,8.3,8.3,0,0,1,1.73.68l.23.12L100.7,43.2l-.27-.21a3.37,3.37,0,0,0-1.08-.56A4.39,4.39,0,0,0,98,42.26a2.8,2.8,0,0,0-2.72,1.63,14.06,14.06,0,0,0-.87,5.85v8.87Z" transform="translate(0 0)"/><path class="cls-2" d="M94.18,41.89A6.34,6.34,0,0,1,96,39a4.13,4.13,0,0,1,2.72-.92,6.73,6.73,0,0,1,1.73.22,8.38,8.38,0,0,1,1.68.66l-1.49,3.8a3.69,3.69,0,0,0-1.16-.61A4.61,4.61,0,0,0,98,42a3.06,3.06,0,0,0-3,1.79,14.27,14.27,0,0,0-.9,6v8.58H90V38.74h4.15Z" transform="translate(0 0)"/><path class="cls-1" d="M109.81,59.42a7.53,7.53,0,0,1-6.26-2.94,12.66,12.66,0,0,1-2.28-7.95,12.23,12.23,0,0,1,2.32-7.75,7.45,7.45,0,0,1,6.1-3,7.26,7.26,0,0,1,3.94,1,5.84,5.84,0,0,1,1.89,1.94v-2.3h4.69V58.61h-4.69v-2a7.46,7.46,0,0,1-2.19,1.92A7.22,7.22,0,0,1,109.81,59.42Zm1.13-17.05a4.14,4.14,0,0,0-3.5,1.63,7.46,7.46,0,0,0-1.28,4.65,7.55,7.55,0,0,0,1.23,4.62,4.42,4.42,0,0,0,6.9-.15,7.37,7.37,0,0,0,1.35-4.63A7.25,7.25,0,0,0,114.39,44,4.08,4.08,0,0,0,110.94,42.37Z" transform="translate(0 0)"/><path class="cls-2" d="M119.94,58.32h-4.15V55.78a7.44,7.44,0,0,1-2.59,2.52,6.91,6.91,0,0,1-3.39.82,7.27,7.27,0,0,1-6.06-2.83,12.34,12.34,0,0,1-2.21-7.76A11.94,11.94,0,0,1,103.8,41a7.16,7.16,0,0,1,5.89-2.87,6.94,6.94,0,0,1,3.8,1,5.76,5.76,0,0,1,2.3,2.87V38.78h4.15Zm-4-9.83a7.53,7.53,0,0,0-1.31-4.72A4.36,4.36,0,0,0,111,42.08a4.43,4.43,0,0,0-3.7,1.74,7.76,7.76,0,0,0-1.34,4.83,7.71,7.71,0,0,0,1.3,4.8,4.66,4.66,0,0,0,7.31-.14,7.67,7.67,0,0,0,1.38-4.82Z" transform="translate(0 0)"/><path class="cls-1" d="M137.16,58.61V48.28c0-2.49-.28-4.16-.82-5a3.27,3.27,0,0,0-2.87-1.15,5.58,5.58,0,0,0-2.48.55,4.27,4.27,0,0,0-1.68,1.53,4.62,4.62,0,0,0-.6,1.69,25,25,0,0,0-.17,3.46v9.2h-4.7V38.49h4.45v2.58a8.1,8.1,0,0,1,2.53-2.31,8.71,8.71,0,0,1,4.22-.95,8.25,8.25,0,0,1,3.56.71,5.4,5.4,0,0,1,2.4,2.16,6.48,6.48,0,0,1,.72,2,22.15,22.15,0,0,1,.22,3.82V58.61Z" transform="translate(0 0)"/><path class="cls-2" d="M124.12,58.32V38.78H128V42a8.21,8.21,0,0,1,2.94-3,8.58,8.58,0,0,1,4.1-.92,7.86,7.86,0,0,1,3.45.69,5.14,5.14,0,0,1,2.23,2,5.7,5.7,0,0,1,.69,1.87,23.64,23.64,0,0,1,.21,3.76V58.32h-4.19v-10c0-2.57-.29-4.28-.87-5.12a3.49,3.49,0,0,0-3.09-1.27,5.52,5.52,0,0,0-2.59.58,4.33,4.33,0,0,0-1.79,1.63,4.47,4.47,0,0,0-.64,1.8,24.21,24.21,0,0,0-.18,3.51v8.91Z" transform="translate(0 0)"/><path class="cls-1" d="M150.67,59.42a8.76,8.76,0,0,1-4.56-1.11,7.49,7.49,0,0,1-2.86-3.41l-.11-.25,4-2.33.1.35a3.62,3.62,0,0,0,1.3,2.07,4.15,4.15,0,0,0,2.51.71,3,3,0,0,0,2-.62,2.06,2.06,0,0,0,.69-1.66c0-.92-.89-1.75-2.65-2.45-.64-.25-1.14-.46-1.49-.63a11.91,11.91,0,0,1-4.15-2.7,5.14,5.14,0,0,1-1.23-3.46,5.61,5.61,0,0,1,2-4.47,8.67,8.67,0,0,1,8.94-.83,5.29,5.29,0,0,1,2.31,2.52l.1.22-3.42,2.54-.12-.35a2.6,2.6,0,0,0-1-1.33,3.07,3.07,0,0,0-1.74-.5,2.65,2.65,0,0,0-1.74.54,1.72,1.72,0,0,0-.61,1.39c0,.87,1.05,1.73,3,2.51.68.26,1.21.48,1.58.65a9.25,9.25,0,0,1,3.69,2.5,5.58,5.58,0,0,1,1.15,3.56,6,6,0,0,1-2.08,4.81A8.39,8.39,0,0,1,150.67,59.42Z" transform="translate(0 0)"/><path class="cls-2" d="M143.49,54.77l3.45-2A3.8,3.8,0,0,0,148.35,55a4.4,4.4,0,0,0,2.66.76,3.21,3.21,0,0,0,2.19-.69,2.39,2.39,0,0,0,.79-1.88c0-1.06-.94-2-2.83-2.72-.63-.25-1.13-.46-1.47-.62a11.87,11.87,0,0,1-4.06-2.64A4.8,4.8,0,0,1,144.47,44a5.34,5.34,0,0,1,1.9-4.25,7.53,7.53,0,0,1,5-1.62,7.31,7.31,0,0,1,3.61.83,5.06,5.06,0,0,1,2.19,2.38l-3,2.19a2.9,2.9,0,0,0-1-1.48,3.38,3.38,0,0,0-1.88-.54,2.84,2.84,0,0,0-1.9.6,2,2,0,0,0-.72,1.62q0,1.53,3.21,2.79c.68.26,1.2.47,1.57.63a9.15,9.15,0,0,1,3.6,2.41,5.25,5.25,0,0,1,1.08,3.37,5.66,5.66,0,0,1-2,4.58,8.21,8.21,0,0,1-5.43,1.66,8.33,8.33,0,0,1-4.42-1.07A7.14,7.14,0,0,1,143.49,54.77Z" transform="translate(0 0)"/><path class="cls-1" d="M174.79,59.42a16.65,16.65,0,0,1-6.24-1.12,13.41,13.41,0,0,1-4.82-3.36,15.53,15.53,0,0,1-3.11-5.23,18.7,18.7,0,0,1-1.08-6.42,18.26,18.26,0,0,1,1.1-6.42,15.08,15.08,0,0,1,3.27-5.19,14.12,14.12,0,0,1,4.89-3.36,15.81,15.81,0,0,1,6-1.15,13.37,13.37,0,0,1,6,1.32,13.77,13.77,0,0,1,4.75,4.06l.18.24-3.75,3-.17-.2a9,9,0,0,0-3.1-2.56,8.64,8.64,0,0,0-3.87-.85,9.42,9.42,0,0,0-7.24,3.06,11.43,11.43,0,0,0-2.8,8,11.61,11.61,0,0,0,2.81,8.09,9.36,9.36,0,0,0,7.27,3.1,8.8,8.8,0,0,0,6-1.89A6.48,6.48,0,0,0,183,47.43v-.14h-6.73V42.57H187.9v1.14c0,1,.06,1.64.06,2,0,4.31-1.17,7.71-3.47,10.11S179,59.42,174.79,59.42Z" transform="translate(0 0)"/><path class="cls-2" d="M176.55,42.86h11.09v.86c0,1,.06,1.65.06,2q0,6.38-3.39,9.9t-9.54,3.52A16.25,16.25,0,0,1,168.65,58a13,13,0,0,1-4.73-3.3,15.17,15.17,0,0,1-3-5.13,18.34,18.34,0,0,1-1.06-6.31,18,18,0,0,1,1-6.26,14.88,14.88,0,0,1,3.2-5.09,13.88,13.88,0,0,1,4.81-3.3,15.43,15.43,0,0,1,5.89-1.13,13,13,0,0,1,5.92,1.3,13.27,13.27,0,0,1,4.65,4L182,35.44a9.39,9.39,0,0,0-3.2-2.64,8.94,8.94,0,0,0-4-.87,9.6,9.6,0,0,0-7.43,3.15,11.61,11.61,0,0,0-2.88,8.17,11.94,11.94,0,0,0,2.88,8.3,9.6,9.6,0,0,0,7.47,3.18,9,9,0,0,0,6.14-2,6.75,6.75,0,0,0,2.24-5.33V47h-6.73Z" transform="translate(0 0)"/><path class="cls-1" d="M199.2,59.42a9.66,9.66,0,0,1-3.89-.82A10.08,10.08,0,0,1,192,56.24a10.77,10.77,0,0,1-2.24-3.52,11.59,11.59,0,0,1,0-8.32A10.5,10.5,0,0,1,192,40.92a9.83,9.83,0,0,1,14.48.08,10.69,10.69,0,0,1,2.24,3.5,11.21,11.21,0,0,1,.77,4.09,11.41,11.41,0,0,1-.76,4.17,10.33,10.33,0,0,1-2.21,3.46,10.83,10.83,0,0,1-3.4,2.4A9.78,9.78,0,0,1,199.2,59.42Zm0-17a4.81,4.81,0,0,0-3.77,1.79,7,7,0,0,0,0,8.82A4.87,4.87,0,0,0,203,53a7,7,0,0,0,0-8.82,4.82,4.82,0,0,0-3.77-1.77Z" transform="translate(0 0)"/><path class="cls-2" d="M189.25,48.57a11,11,0,0,1,.75-4,10.48,10.48,0,0,1,2.18-3.39,9.62,9.62,0,0,1,14.11.06,10.52,10.52,0,0,1,2.18,3.4,10.72,10.72,0,0,1,.75,4,11.06,11.06,0,0,1-.74,4.06,10,10,0,0,1-2.15,3.3A10.44,10.44,0,0,1,203,58.33a9.56,9.56,0,0,1-7.61,0,9.84,9.84,0,0,1-3.23-2.3A10.73,10.73,0,0,1,190,52.61,11.17,11.17,0,0,1,189.25,48.57Zm15.59,0A6.77,6.77,0,0,0,203.21,44a5.14,5.14,0,0,0-7.23-.77,5.6,5.6,0,0,0-.77.77,7.34,7.34,0,0,0,0,9.22,5.13,5.13,0,0,0,7.22.72,5.44,5.44,0,0,0,.72-.72,6.79,6.79,0,0,0,1.69-4.61Z" transform="translate(0 0)"/><path class="cls-1" d="M78.54,6.2,55.8.2a6,6,0,0,0-4.56.61l-7,4v19L24.89,34.31,8.3,30,29.22,18.2v6.17l-1.47.86a.55.55,0,0,0-.21.76.46.46,0,0,0,.14.17L31.82,29l3.47-7.19c.18-.36-.38-.78-.74-.58l-.88.52v-7a2.45,2.45,0,0,0-2.45-2.45,2.51,2.51,0,0,0-1.17.3L1.25,28.29a2.4,2.4,0,0,0,.47,4.41l24,7,6.43-3.59V69.66a2.17,2.17,0,0,0,2.15,2.17,2.2,2.2,0,0,0,1.31-.44l18.6-14V32.07l1.43-.88a.42.42,0,0,0,.14-.56.38.38,0,0,0-.14-.14l-4.46-3L46.54,36c-.17.31.27.71.58.53L49,35.35,49.17,54a2.07,2.07,0,0,1-.81,1.68l-10,7.76a.76.76,0,0,1-1.08-.12.79.79,0,0,1-.17-.49l.1-29.49L79,10a2,2,0,0,0-.46-3.8Zm-29.49,15L48.94,7.38l3.44-1.8a4.72,4.72,0,0,1,3.38-.4L71.31,9.06Z" transform="translate(0 0)"/></g></g></svg>