<?xml version="1.0" standalone="no"?><!DOCTYPE svg PUBLIC "-//W3C//DTD SVG 1.1//EN" "http://www.w3.org/Graphics/SVG/1.1/DTD/svg11.dtd"><svg t="1608191398216" class="icon" viewBox="0 0 1024 1024" version="1.1" xmlns="http://www.w3.org/2000/svg" p-id="1282" xmlns:xlink="http://www.w3.org/1999/xlink" width="64" height="64"><defs><style type="text/css"></style></defs><path d="M512 11.636622c278.603852 0 500.363378 221.758578 500.363378 500.363378 0 278.603852-221.758578 500.363378-500.363378 500.363378-278.603852 0-500.363378-221.758578-500.363378-500.363378C11.636622 233.396148 233.3952 11.636622 512 11.636622z m0 69.817837C271.955437 81.455407 81.455407 271.955437 81.455407 512S271.954489 942.544593 512 942.544593c240.044563 0 430.544593-190.50003 430.544593-430.544593 0-240.044563-190.50003-430.544593-430.544593-430.544593z m0 756.363378c-39.896178 0-66.49363-33.246815-66.49363-66.49363 0-33.245867 33.246815-66.49363 66.49363-66.493629 39.896178 0 66.49363 33.247763 66.49363 66.493629 0 33.246815-33.246815 66.49363-66.49363 66.49363z m93.091081-292.571022c-19.949037 19.948089-33.246815 33.246815-39.896177 46.544592-6.649363 6.650311-6.649363 26.5984-6.649363 59.845215H458.805096V625.038222c0-33.246815 6.649363-59.844267 13.298726-79.792355 13.298726-19.948089 33.246815-46.545541 59.844267-66.49363 33.246815-26.597452 53.194904-39.896178 53.194904-53.194904 6.649363-13.298726 13.298726-26.597452 13.298726-39.896177 0-19.948089-6.649363-39.896178-26.597452-53.194904-6.649363-13.298726-26.597452-19.948089-53.194904-19.948089-33.246815 0-53.194904 6.649363-73.142993 19.949037-19.948089 19.947141-33.246815 53.193956-33.246814 73.142044-6.649363 19.949037-106.389807 26.597452-99.740445-13.298725 0-39.896178 19.949037-86.441719 59.844267-119.688534 33.246815-26.596504 79.792356-46.544593 139.636622-46.544592 59.844267 0 113.038222 13.298726 146.285985 46.544592 39.896178 33.246815 53.194904 73.142993 53.194904 119.688534 0 19.949037-6.649363 46.545541-19.949037 66.493629-13.297778 19.949037-39.89523 46.545541-86.440771 86.441719z" p-id="1283"></path></svg>